<mxfile host="app.diagrams.net" modified="2023-07-02T13:22:56.484Z" agent="Mozilla/5.0 (Windows NT 10.0; Win64; x64) AppleWebKit/537.36 (KHTML, like Gecko) Chrome/114.0.0.0 Safari/537.36" etag="Ky8FXxtp4BOP0cYkTbSl" version="21.5.2" type="onedrive">
  <diagram id="C5RBs43oDa-KdzZeNtuy" name="Page-1">
    <mxGraphModel dx="2261" dy="1965" grid="1" gridSize="10" guides="1" tooltips="1" connect="1" arrows="1" fold="1" page="1" pageScale="1" pageWidth="827" pageHeight="1169" math="0" shadow="0">
      <root>
        <mxCell id="WIyWlLk6GJQsqaUBKTNV-0" />
        <mxCell id="WIyWlLk6GJQsqaUBKTNV-1" parent="WIyWlLk6GJQsqaUBKTNV-0" />
        <mxCell id="ZbOTNVOlPopGAY5BEThr-0" value="GeneralTree" style="swimlane;fontStyle=1;align=center;verticalAlign=top;childLayout=stackLayout;horizontal=1;startSize=26;horizontalStack=0;resizeParent=1;resizeParentMax=0;resizeLast=0;collapsible=1;marginBottom=0;whiteSpace=wrap;html=1;" parent="WIyWlLk6GJQsqaUBKTNV-1" vertex="1">
          <mxGeometry x="400" y="240" width="200" height="250" as="geometry" />
        </mxCell>
        <mxCell id="ZbOTNVOlPopGAY5BEThr-1" value="- root : Node*" style="text;strokeColor=none;fillColor=none;align=left;verticalAlign=top;spacingLeft=4;spacingRight=4;overflow=hidden;rotatable=0;points=[[0,0.5],[1,0.5]];portConstraint=eastwest;whiteSpace=wrap;html=1;" parent="ZbOTNVOlPopGAY5BEThr-0" vertex="1">
          <mxGeometry y="26" width="200" height="26" as="geometry" />
        </mxCell>
        <mxCell id="ZbOTNVOlPopGAY5BEThr-2" value="" style="line;strokeWidth=1;fillColor=none;align=left;verticalAlign=middle;spacingTop=-1;spacingLeft=3;spacingRight=3;rotatable=0;labelPosition=right;points=[];portConstraint=eastwest;strokeColor=inherit;" parent="ZbOTNVOlPopGAY5BEThr-0" vertex="1">
          <mxGeometry y="52" width="200" height="8" as="geometry" />
        </mxCell>
        <mxCell id="ZbOTNVOlPopGAY5BEThr-3" value="+ GeneralTree()&lt;br&gt;- traverseHelper(Node*) : void&lt;br&gt;+ getRoot() : Node*&lt;br&gt;+ setRoot(Node*) : void&lt;br&gt;+ getRootData() : File&lt;br&gt;+ setRootData(File) : void&lt;br&gt;+ getChildren() : vector&amp;lt;Node*&amp;gt;&lt;br&gt;+ setParent(Node*, Node*) : void&lt;br&gt;+ insert(Node*, Node*) : void&lt;br&gt;+ insert(File, File) : void&lt;br&gt;+ remove(Node*) : void&lt;br&gt;+ traverse() : void" style="text;strokeColor=none;fillColor=none;align=left;verticalAlign=top;spacingLeft=4;spacingRight=4;overflow=hidden;rotatable=0;points=[[0,0.5],[1,0.5]];portConstraint=eastwest;whiteSpace=wrap;html=1;" parent="ZbOTNVOlPopGAY5BEThr-0" vertex="1">
          <mxGeometry y="60" width="200" height="190" as="geometry" />
        </mxCell>
        <mxCell id="ZbOTNVOlPopGAY5BEThr-8" value="Node" style="swimlane;fontStyle=1;align=center;verticalAlign=top;childLayout=stackLayout;horizontal=1;startSize=26;horizontalStack=0;resizeParent=1;resizeParentMax=0;resizeLast=0;collapsible=1;marginBottom=0;whiteSpace=wrap;html=1;" parent="WIyWlLk6GJQsqaUBKTNV-1" vertex="1">
          <mxGeometry x="400" width="180" height="190" as="geometry" />
        </mxCell>
        <mxCell id="ZbOTNVOlPopGAY5BEThr-9" value="+ data : File&lt;br&gt;+ parent : Node*&lt;br&gt;+ children : vector&amp;lt;Node*&amp;gt;" style="text;strokeColor=none;fillColor=none;align=left;verticalAlign=top;spacingLeft=4;spacingRight=4;overflow=hidden;rotatable=0;points=[[0,0.5],[1,0.5]];portConstraint=eastwest;whiteSpace=wrap;html=1;" parent="ZbOTNVOlPopGAY5BEThr-8" vertex="1">
          <mxGeometry y="26" width="180" height="54" as="geometry" />
        </mxCell>
        <mxCell id="ZbOTNVOlPopGAY5BEThr-10" value="" style="line;strokeWidth=1;fillColor=none;align=left;verticalAlign=middle;spacingTop=-1;spacingLeft=3;spacingRight=3;rotatable=0;labelPosition=right;points=[];portConstraint=eastwest;strokeColor=inherit;" parent="ZbOTNVOlPopGAY5BEThr-8" vertex="1">
          <mxGeometry y="80" width="180" height="8" as="geometry" />
        </mxCell>
        <mxCell id="ZbOTNVOlPopGAY5BEThr-11" value="+ Node(File)&lt;br&gt;+ getParent() : Node*&lt;br&gt;+ addChild(Node*) : void&lt;br&gt;+ ~Node()&lt;br&gt;+ operator==(Node) : bool&lt;br&gt;+ removeChild(Node*) : void" style="text;strokeColor=none;fillColor=none;align=left;verticalAlign=top;spacingLeft=4;spacingRight=4;overflow=hidden;rotatable=0;points=[[0,0.5],[1,0.5]];portConstraint=eastwest;whiteSpace=wrap;html=1;" parent="ZbOTNVOlPopGAY5BEThr-8" vertex="1">
          <mxGeometry y="88" width="180" height="102" as="geometry" />
        </mxCell>
        <mxCell id="DWfKfB0hs1ZdpWbbxo_0-9" value="+ Node(File)&lt;br&gt;+ getParent() : Node*&lt;br&gt;+ addChild(Node*) : void&lt;br&gt;+ ~Node()&lt;br&gt;+ operator==(Node) : bool&lt;br&gt;+ removeChild(Node*) : void" style="text;strokeColor=none;fillColor=none;align=left;verticalAlign=top;spacingLeft=4;spacingRight=4;overflow=hidden;rotatable=0;points=[[0,0.5],[1,0.5]];portConstraint=eastwest;whiteSpace=wrap;html=1;" vertex="1" parent="ZbOTNVOlPopGAY5BEThr-8">
          <mxGeometry y="190" width="180" as="geometry" />
        </mxCell>
        <mxCell id="ZbOTNVOlPopGAY5BEThr-12" value="File" style="swimlane;fontStyle=1;align=center;verticalAlign=top;childLayout=stackLayout;horizontal=1;startSize=26;horizontalStack=0;resizeParent=1;resizeParentMax=0;resizeLast=0;collapsible=1;marginBottom=0;whiteSpace=wrap;html=1;" parent="WIyWlLk6GJQsqaUBKTNV-1" vertex="1">
          <mxGeometry x="40" y="20" width="300" height="430" as="geometry" />
        </mxCell>
        <mxCell id="ZbOTNVOlPopGAY5BEThr-13" value="- name : string&lt;br&gt;- absolutePath : string&lt;br&gt;- content: char*&lt;br&gt;- format : string&lt;br&gt;- permissions : Permission&lt;br&gt;- is_Directory : bool" style="text;strokeColor=none;fillColor=none;align=left;verticalAlign=top;spacingLeft=4;spacingRight=4;overflow=hidden;rotatable=0;points=[[0,0.5],[1,0.5]];portConstraint=eastwest;whiteSpace=wrap;html=1;" parent="ZbOTNVOlPopGAY5BEThr-12" vertex="1">
          <mxGeometry y="26" width="300" height="94" as="geometry" />
        </mxCell>
        <mxCell id="ZbOTNVOlPopGAY5BEThr-14" value="" style="line;strokeWidth=1;fillColor=none;align=left;verticalAlign=middle;spacingTop=-1;spacingLeft=3;spacingRight=3;rotatable=0;labelPosition=right;points=[];portConstraint=eastwest;strokeColor=inherit;" parent="ZbOTNVOlPopGAY5BEThr-12" vertex="1">
          <mxGeometry y="120" width="300" height="8" as="geometry" />
        </mxCell>
        <mxCell id="ZbOTNVOlPopGAY5BEThr-15" value="+ File()&lt;br&gt;+ File(string)&lt;br&gt;+ File(string, string, string, char*, vector&amp;lt;char&amp;gt;, bool)&lt;br&gt;+ setName(string) : void&lt;br&gt;+ getName() : string&lt;br&gt;+ setAbsolutePath(string) : void&lt;br&gt;+ getAbsolutePath() : string&lt;br&gt;+ setContent(const char*) : void&lt;br&gt;+ getContent() : char*&lt;br&gt;+ setFormat(string) : void&lt;br&gt;+ getFormat() : string&lt;br&gt;+ getOctalPermissions() : int&lt;br&gt;+ getPermissionsString() : string&lt;br&gt;+ setPermissions(bool, bool, bool, bool, bool, bool, bool, bool, bool) : void&lt;br&gt;+ setPermissionsFromOctal(int) : void&lt;br&gt;+ setPermissions(Permission) : void&lt;br&gt;+ getPermission() : Permission&lt;br&gt;+ setIsDirectory(bool) : void&lt;br&gt;+ getIsDirectory() : bool" style="text;strokeColor=none;fillColor=none;align=left;verticalAlign=top;spacingLeft=4;spacingRight=4;overflow=hidden;rotatable=0;points=[[0,0.5],[1,0.5]];portConstraint=eastwest;whiteSpace=wrap;html=1;" parent="ZbOTNVOlPopGAY5BEThr-12" vertex="1">
          <mxGeometry y="128" width="300" height="302" as="geometry" />
        </mxCell>
        <mxCell id="ZbOTNVOlPopGAY5BEThr-16" value="" style="endArrow=diamondThin;endFill=1;endSize=24;html=1;rounded=0;entryX=1.003;entryY=0.777;entryDx=0;entryDy=0;entryPerimeter=0;" parent="WIyWlLk6GJQsqaUBKTNV-1" target="ZbOTNVOlPopGAY5BEThr-13" edge="1">
          <mxGeometry width="160" relative="1" as="geometry">
            <mxPoint x="400" y="120" as="sourcePoint" />
            <mxPoint x="510" y="370" as="targetPoint" />
          </mxGeometry>
        </mxCell>
        <mxCell id="ZbOTNVOlPopGAY5BEThr-17" value="" style="endArrow=diamondThin;endFill=1;endSize=24;html=1;rounded=0;entryX=0.461;entryY=0;entryDx=0;entryDy=0;entryPerimeter=0;exitX=0.415;exitY=0;exitDx=0;exitDy=0;exitPerimeter=0;" parent="WIyWlLk6GJQsqaUBKTNV-1" target="DWfKfB0hs1ZdpWbbxo_0-9" edge="1" source="ZbOTNVOlPopGAY5BEThr-0">
          <mxGeometry width="160" relative="1" as="geometry">
            <mxPoint x="480" y="236" as="sourcePoint" />
            <mxPoint x="510" y="370" as="targetPoint" />
          </mxGeometry>
        </mxCell>
        <mxCell id="ZbOTNVOlPopGAY5BEThr-18" value="" style="endArrow=open;endFill=1;endSize=12;html=1;rounded=0;exitX=0;exitY=0.321;exitDx=0;exitDy=0;exitPerimeter=0;" parent="WIyWlLk6GJQsqaUBKTNV-1" source="ZbOTNVOlPopGAY5BEThr-3" edge="1">
          <mxGeometry width="160" relative="1" as="geometry">
            <mxPoint x="390" y="360" as="sourcePoint" />
            <mxPoint x="346" y="361" as="targetPoint" />
          </mxGeometry>
        </mxCell>
        <mxCell id="ZbOTNVOlPopGAY5BEThr-19" value="FileSystem" style="swimlane;fontStyle=1;align=center;verticalAlign=top;childLayout=stackLayout;horizontal=1;startSize=26;horizontalStack=0;resizeParent=1;resizeParentMax=0;resizeLast=0;collapsible=1;marginBottom=0;whiteSpace=wrap;html=1;" parent="WIyWlLk6GJQsqaUBKTNV-1" vertex="1">
          <mxGeometry x="40" y="470" width="270" height="550" as="geometry" />
        </mxCell>
        <mxCell id="ZbOTNVOlPopGAY5BEThr-20" value="- tree : GeneralTree&lt;br&gt;- currentDirectory : string&lt;br&gt;- commandHistory : vector&amp;lt;std::string&amp;gt;" style="text;strokeColor=none;fillColor=none;align=left;verticalAlign=top;spacingLeft=4;spacingRight=4;overflow=hidden;rotatable=0;points=[[0,0.5],[1,0.5]];portConstraint=eastwest;whiteSpace=wrap;html=1;" parent="ZbOTNVOlPopGAY5BEThr-19" vertex="1">
          <mxGeometry y="26" width="270" height="54" as="geometry" />
        </mxCell>
        <mxCell id="ZbOTNVOlPopGAY5BEThr-21" value="" style="line;strokeWidth=1;fillColor=none;align=left;verticalAlign=middle;spacingTop=-1;spacingLeft=3;spacingRight=3;rotatable=0;labelPosition=right;points=[];portConstraint=eastwest;strokeColor=inherit;" parent="ZbOTNVOlPopGAY5BEThr-19" vertex="1">
          <mxGeometry y="80" width="270" height="8" as="geometry" />
        </mxCell>
        <mxCell id="ZbOTNVOlPopGAY5BEThr-22" value="+ FileSystem()&lt;br&gt;+ help() : void&lt;br&gt;+ pwd() : void&lt;br&gt;+ ls() : void&lt;br&gt;+ lsDetailed() : void&lt;br&gt;+ lsSortedByTime() : void&lt;br&gt;+ lsLongFormat() : void&lt;br&gt;+ cd(string) : void&lt;br&gt;+ createFile(string) : void&lt;br&gt;+ createDirectory(string) : void&lt;br&gt;+ readFile(string) : void&lt;br&gt;+ writeFile(string) : void&lt;br&gt;+ copyFile(string, string) : void&lt;br&gt;+ moveFile(string, string) : void&lt;br&gt;+ renameItem(string, string) : void&lt;br&gt;+ deleteFile(string) : void&lt;br&gt;+ updateChildPaths(Node*, string, string) : void&lt;br&gt;+ findNode(string) : Node*&lt;br&gt;+ getCurrentDirectory() : string&lt;br&gt;+ setCurrentDirectory(string) : void&lt;br&gt;+ chmod(string, string) : void&lt;br&gt;+ history() : void&lt;br&gt;+ clear() : void&lt;br&gt;+ head(int, string) : void&lt;br&gt;+ tail(int, string) : void&lt;br&gt;+ file(string) : void&lt;br&gt;+ ln(string, string) : void&lt;br&gt;+ wc(string) : void&lt;br&gt;+ addToHistory(string) : void&lt;br&gt;+ clearCommandHistory() : void&lt;br&gt;+ getCommandHistory() : vector&amp;lt;string&amp;gt;&lt;br&gt;&lt;br&gt;&amp;nbsp;" style="text;strokeColor=none;fillColor=none;align=left;verticalAlign=top;spacingLeft=4;spacingRight=4;overflow=hidden;rotatable=0;points=[[0,0.5],[1,0.5]];portConstraint=eastwest;whiteSpace=wrap;html=1;" parent="ZbOTNVOlPopGAY5BEThr-19" vertex="1">
          <mxGeometry y="88" width="270" height="462" as="geometry" />
        </mxCell>
        <mxCell id="ZbOTNVOlPopGAY5BEThr-23" value="" style="endArrow=diamondThin;endFill=1;endSize=24;html=1;rounded=0;entryX=-0.005;entryY=0.947;entryDx=0;entryDy=0;entryPerimeter=0;" parent="WIyWlLk6GJQsqaUBKTNV-1" edge="1" target="ZbOTNVOlPopGAY5BEThr-3">
          <mxGeometry width="160" relative="1" as="geometry">
            <mxPoint x="310" y="480" as="sourcePoint" />
            <mxPoint x="390" y="480" as="targetPoint" />
          </mxGeometry>
        </mxCell>
        <mxCell id="ZbOTNVOlPopGAY5BEThr-25" value="" style="endArrow=open;endFill=1;endSize=12;html=1;rounded=0;entryX=0.439;entryY=-0.005;entryDx=0;entryDy=0;entryPerimeter=0;" parent="WIyWlLk6GJQsqaUBKTNV-1" target="ZbOTNVOlPopGAY5BEThr-8" edge="1">
          <mxGeometry width="160" relative="1" as="geometry">
            <mxPoint x="38" y="480" as="sourcePoint" />
            <mxPoint x="570" y="-60" as="targetPoint" />
            <Array as="points">
              <mxPoint x="10" y="480" />
              <mxPoint x="-90" y="480" />
              <mxPoint x="-200" y="480" />
              <mxPoint x="-200" y="330" />
              <mxPoint x="-200" y="200" />
              <mxPoint x="-200" y="-40" />
              <mxPoint x="260" y="-40" />
              <mxPoint x="480" y="-40" />
              <mxPoint x="480" y="-10" />
            </Array>
          </mxGeometry>
        </mxCell>
        <mxCell id="ZbOTNVOlPopGAY5BEThr-26" value="User" style="swimlane;fontStyle=1;align=center;verticalAlign=top;childLayout=stackLayout;horizontal=1;startSize=26;horizontalStack=0;resizeParent=1;resizeParentMax=0;resizeLast=0;collapsible=1;marginBottom=0;whiteSpace=wrap;html=1;" parent="WIyWlLk6GJQsqaUBKTNV-1" vertex="1">
          <mxGeometry x="400" y="520" width="220" height="310" as="geometry" />
        </mxCell>
        <mxCell id="ZbOTNVOlPopGAY5BEThr-27" value="- name : string&lt;br&gt;- password : string&lt;br&gt;- server : string&lt;br&gt;- uid : int&lt;br&gt;- gid : int&lt;br&gt;- users : vector&amp;lt;User&amp;gt;" style="text;strokeColor=none;fillColor=none;align=left;verticalAlign=top;spacingLeft=4;spacingRight=4;overflow=hidden;rotatable=0;points=[[0,0.5],[1,0.5]];portConstraint=eastwest;whiteSpace=wrap;html=1;" parent="ZbOTNVOlPopGAY5BEThr-26" vertex="1">
          <mxGeometry y="26" width="220" height="94" as="geometry" />
        </mxCell>
        <mxCell id="ZbOTNVOlPopGAY5BEThr-28" value="" style="line;strokeWidth=1;fillColor=none;align=left;verticalAlign=middle;spacingTop=-1;spacingLeft=3;spacingRight=3;rotatable=0;labelPosition=right;points=[];portConstraint=eastwest;strokeColor=inherit;" parent="ZbOTNVOlPopGAY5BEThr-26" vertex="1">
          <mxGeometry y="120" width="220" height="8" as="geometry" />
        </mxCell>
        <mxCell id="ZbOTNVOlPopGAY5BEThr-29" value="+ User()&lt;br&gt;+ User(string, string)&lt;br&gt;+ setName(string) : void&lt;br&gt;+ getName() : string&lt;br&gt;+ setPassword(string) : void&lt;br&gt;+ getPassword() : string&lt;br&gt;+ getUid() : int&lt;br&gt;+ getGid() : int&lt;br&gt;+ useradd(string) : void&lt;br&gt;+ passwd(string) : void&lt;br&gt;+ id(string) : void&lt;br&gt;+ getUserByUsername(string) : User" style="text;strokeColor=none;fillColor=none;align=left;verticalAlign=top;spacingLeft=4;spacingRight=4;overflow=hidden;rotatable=0;points=[[0,0.5],[1,0.5]];portConstraint=eastwest;whiteSpace=wrap;html=1;" parent="ZbOTNVOlPopGAY5BEThr-26" vertex="1">
          <mxGeometry y="128" width="220" height="182" as="geometry" />
        </mxCell>
        <mxCell id="ZbOTNVOlPopGAY5BEThr-31" value="Command" style="swimlane;fontStyle=1;align=center;verticalAlign=top;childLayout=stackLayout;horizontal=1;startSize=26;horizontalStack=0;resizeParent=1;resizeParentMax=0;resizeLast=0;collapsible=1;marginBottom=0;whiteSpace=wrap;html=1;" parent="WIyWlLk6GJQsqaUBKTNV-1" vertex="1">
          <mxGeometry x="400" y="890" width="280" height="250" as="geometry" />
        </mxCell>
        <mxCell id="ZbOTNVOlPopGAY5BEThr-32" value="- name : string&lt;br&gt;- arguments : vector&amp;lt;string&amp;gt;&lt;br&gt;- options : map&amp;lt;string, vector&amp;lt;string&amp;gt;&amp;gt;" style="text;strokeColor=none;fillColor=none;align=left;verticalAlign=top;spacingLeft=4;spacingRight=4;overflow=hidden;rotatable=0;points=[[0,0.5],[1,0.5]];portConstraint=eastwest;whiteSpace=wrap;html=1;" parent="ZbOTNVOlPopGAY5BEThr-31" vertex="1">
          <mxGeometry y="26" width="280" height="54" as="geometry" />
        </mxCell>
        <mxCell id="ZbOTNVOlPopGAY5BEThr-33" value="" style="line;strokeWidth=1;fillColor=none;align=left;verticalAlign=middle;spacingTop=-1;spacingLeft=3;spacingRight=3;rotatable=0;labelPosition=right;points=[];portConstraint=eastwest;strokeColor=inherit;" parent="ZbOTNVOlPopGAY5BEThr-31" vertex="1">
          <mxGeometry y="80" width="280" height="8" as="geometry" />
        </mxCell>
        <mxCell id="ZbOTNVOlPopGAY5BEThr-34" value="+ Command()&lt;br&gt;+ Command(string)&lt;br&gt;+ setName(string) : void&lt;br&gt;+ getName() : string&lt;br&gt;+ setArguments(vector&amp;lt;string&amp;gt;) : void&lt;br&gt;+ getArguments() : vector&amp;lt;string&amp;gt;&lt;br&gt;+ setOptions(map&amp;lt;string, vector&amp;lt;string&amp;gt;&amp;gt;) : void&lt;br&gt;+ getOptions() : map&amp;lt;string, vector&amp;lt;string&amp;gt;&amp;gt;&lt;br&gt;+ splitCommand(string, char) : vector&amp;lt;string&amp;gt;&lt;br&gt;+ isOption(string) : bool" style="text;strokeColor=none;fillColor=none;align=left;verticalAlign=top;spacingLeft=4;spacingRight=4;overflow=hidden;rotatable=0;points=[[0,0.5],[1,0.5]];portConstraint=eastwest;whiteSpace=wrap;html=1;" parent="ZbOTNVOlPopGAY5BEThr-31" vertex="1">
          <mxGeometry y="88" width="280" height="162" as="geometry" />
        </mxCell>
        <mxCell id="ZbOTNVOlPopGAY5BEThr-35" value="CommandValidator" style="swimlane;fontStyle=1;align=center;verticalAlign=top;childLayout=stackLayout;horizontal=1;startSize=26;horizontalStack=0;resizeParent=1;resizeParentMax=0;resizeLast=0;collapsible=1;marginBottom=0;whiteSpace=wrap;html=1;" parent="WIyWlLk6GJQsqaUBKTNV-1" vertex="1">
          <mxGeometry x="400" y="1240" width="280" height="170" as="geometry" />
        </mxCell>
        <mxCell id="ZbOTNVOlPopGAY5BEThr-36" value="- command : Command&lt;br&gt;- validCommands : vector&amp;lt;string&amp;gt;&lt;br&gt;- validOptions : map&amp;lt;string, vector&amp;lt;string&amp;gt;" style="text;strokeColor=none;fillColor=none;align=left;verticalAlign=top;spacingLeft=4;spacingRight=4;overflow=hidden;rotatable=0;points=[[0,0.5],[1,0.5]];portConstraint=eastwest;whiteSpace=wrap;html=1;" parent="ZbOTNVOlPopGAY5BEThr-35" vertex="1">
          <mxGeometry y="26" width="280" height="54" as="geometry" />
        </mxCell>
        <mxCell id="ZbOTNVOlPopGAY5BEThr-37" value="" style="line;strokeWidth=1;fillColor=none;align=left;verticalAlign=middle;spacingTop=-1;spacingLeft=3;spacingRight=3;rotatable=0;labelPosition=right;points=[];portConstraint=eastwest;strokeColor=inherit;" parent="ZbOTNVOlPopGAY5BEThr-35" vertex="1">
          <mxGeometry y="80" width="280" height="8" as="geometry" />
        </mxCell>
        <mxCell id="ZbOTNVOlPopGAY5BEThr-38" value="+ CommandValidator()&lt;br&gt;+ CommandValidator(Command)&lt;br&gt;+ isValidCommand(Command) : bool&lt;br&gt;+ getCommand() : Command&lt;br&gt;+ getValidOptions() : map&amp;lt;string, vector&amp;lt;string&amp;gt;&amp;gt;" style="text;strokeColor=none;fillColor=none;align=left;verticalAlign=top;spacingLeft=4;spacingRight=4;overflow=hidden;rotatable=0;points=[[0,0.5],[1,0.5]];portConstraint=eastwest;whiteSpace=wrap;html=1;" parent="ZbOTNVOlPopGAY5BEThr-35" vertex="1">
          <mxGeometry y="88" width="280" height="82" as="geometry" />
        </mxCell>
        <mxCell id="ZbOTNVOlPopGAY5BEThr-39" value="CommandExecutor" style="swimlane;fontStyle=1;align=center;verticalAlign=top;childLayout=stackLayout;horizontal=1;startSize=26;horizontalStack=0;resizeParent=1;resizeParentMax=0;resizeLast=0;collapsible=1;marginBottom=0;whiteSpace=wrap;html=1;" parent="WIyWlLk6GJQsqaUBKTNV-1" vertex="1">
          <mxGeometry x="40" y="1240" width="240" height="160" as="geometry" />
        </mxCell>
        <mxCell id="ZbOTNVOlPopGAY5BEThr-40" value="- command : Command&lt;br&gt;- fs : FileSystem&lt;br&gt;- u : User" style="text;strokeColor=none;fillColor=none;align=left;verticalAlign=top;spacingLeft=4;spacingRight=4;overflow=hidden;rotatable=0;points=[[0,0.5],[1,0.5]];portConstraint=eastwest;whiteSpace=wrap;html=1;" parent="ZbOTNVOlPopGAY5BEThr-39" vertex="1">
          <mxGeometry y="26" width="240" height="54" as="geometry" />
        </mxCell>
        <mxCell id="ZbOTNVOlPopGAY5BEThr-41" value="" style="line;strokeWidth=1;fillColor=none;align=left;verticalAlign=middle;spacingTop=-1;spacingLeft=3;spacingRight=3;rotatable=0;labelPosition=right;points=[];portConstraint=eastwest;strokeColor=inherit;" parent="ZbOTNVOlPopGAY5BEThr-39" vertex="1">
          <mxGeometry y="80" width="240" height="8" as="geometry" />
        </mxCell>
        <mxCell id="ZbOTNVOlPopGAY5BEThr-42" value="+ CommandExecutor()&lt;br&gt;+ CommandExecutor(Command)&lt;br&gt;+ CommandExecutor(FileSystem)&lt;br&gt;+ execute() : void" style="text;strokeColor=none;fillColor=none;align=left;verticalAlign=top;spacingLeft=4;spacingRight=4;overflow=hidden;rotatable=0;points=[[0,0.5],[1,0.5]];portConstraint=eastwest;whiteSpace=wrap;html=1;" parent="ZbOTNVOlPopGAY5BEThr-39" vertex="1">
          <mxGeometry y="88" width="240" height="72" as="geometry" />
        </mxCell>
        <mxCell id="ZbOTNVOlPopGAY5BEThr-43" value="" style="endArrow=diamondThin;endFill=1;endSize=24;html=1;rounded=0;exitX=0.648;exitY=-0.007;exitDx=0;exitDy=0;exitPerimeter=0;entryX=0.575;entryY=1.005;entryDx=0;entryDy=0;entryPerimeter=0;" parent="WIyWlLk6GJQsqaUBKTNV-1" edge="1">
          <mxGeometry width="160" relative="1" as="geometry">
            <mxPoint x="200.26999999999998" y="1240" as="sourcePoint" />
            <mxPoint x="200" y="1023.43" as="targetPoint" />
          </mxGeometry>
        </mxCell>
        <mxCell id="ZbOTNVOlPopGAY5BEThr-45" value="" style="endArrow=open;endFill=1;endSize=12;html=1;rounded=0;exitX=1;exitY=0.444;exitDx=0;exitDy=0;exitPerimeter=0;" parent="WIyWlLk6GJQsqaUBKTNV-1" edge="1" source="ZbOTNVOlPopGAY5BEThr-42">
          <mxGeometry width="160" relative="1" as="geometry">
            <mxPoint x="290" y="1360" as="sourcePoint" />
            <mxPoint x="400" y="1360" as="targetPoint" />
            <Array as="points">
              <mxPoint x="340" y="1360" />
            </Array>
          </mxGeometry>
        </mxCell>
        <mxCell id="ZbOTNVOlPopGAY5BEThr-46" value="" style="endArrow=diamondThin;endFill=1;endSize=24;html=1;rounded=0;entryX=0;entryY=0.198;entryDx=0;entryDy=0;entryPerimeter=0;exitX=1.004;exitY=0;exitDx=0;exitDy=0;exitPerimeter=0;" parent="WIyWlLk6GJQsqaUBKTNV-1" target="ZbOTNVOlPopGAY5BEThr-29" edge="1" source="ZbOTNVOlPopGAY5BEThr-41">
          <mxGeometry width="160" relative="1" as="geometry">
            <mxPoint x="290" y="1320" as="sourcePoint" />
            <mxPoint x="390" y="730" as="targetPoint" />
            <Array as="points">
              <mxPoint x="360" y="1320" />
              <mxPoint x="360" y="1200" />
              <mxPoint x="360" y="680" />
              <mxPoint x="380" y="680" />
            </Array>
          </mxGeometry>
        </mxCell>
        <mxCell id="ZbOTNVOlPopGAY5BEThr-48" value="" style="endArrow=diamondThin;endFill=1;endSize=24;html=1;rounded=0;exitX=0.289;exitY=-0.018;exitDx=0;exitDy=0;exitPerimeter=0;entryX=0.289;entryY=1.006;entryDx=0;entryDy=0;entryPerimeter=0;" parent="WIyWlLk6GJQsqaUBKTNV-1" source="ZbOTNVOlPopGAY5BEThr-35" target="ZbOTNVOlPopGAY5BEThr-34" edge="1">
          <mxGeometry width="160" relative="1" as="geometry">
            <mxPoint x="490" y="1120" as="sourcePoint" />
            <mxPoint x="480" y="1150" as="targetPoint" />
          </mxGeometry>
        </mxCell>
        <mxCell id="ZbOTNVOlPopGAY5BEThr-49" value="Question" style="swimlane;fontStyle=1;align=center;verticalAlign=top;childLayout=stackLayout;horizontal=1;startSize=26;horizontalStack=0;resizeParent=1;resizeParentMax=0;resizeLast=0;collapsible=1;marginBottom=0;whiteSpace=wrap;html=1;" parent="WIyWlLk6GJQsqaUBKTNV-1" vertex="1">
          <mxGeometry x="40" y="1440" width="170" height="130" as="geometry" />
        </mxCell>
        <mxCell id="ZbOTNVOlPopGAY5BEThr-50" value="- question : string" style="text;strokeColor=none;fillColor=none;align=left;verticalAlign=top;spacingLeft=4;spacingRight=4;overflow=hidden;rotatable=0;points=[[0,0.5],[1,0.5]];portConstraint=eastwest;whiteSpace=wrap;html=1;" parent="ZbOTNVOlPopGAY5BEThr-49" vertex="1">
          <mxGeometry y="26" width="170" height="24" as="geometry" />
        </mxCell>
        <mxCell id="ZbOTNVOlPopGAY5BEThr-51" value="" style="line;strokeWidth=1;fillColor=none;align=left;verticalAlign=middle;spacingTop=-1;spacingLeft=3;spacingRight=3;rotatable=0;labelPosition=right;points=[];portConstraint=eastwest;strokeColor=inherit;" parent="ZbOTNVOlPopGAY5BEThr-49" vertex="1">
          <mxGeometry y="50" width="170" height="8" as="geometry" />
        </mxCell>
        <mxCell id="ZbOTNVOlPopGAY5BEThr-52" value="+ Question()&lt;br&gt;+ Question(string)&lt;br&gt;+ setQuestion(string) : void&lt;br&gt;+ getQuestion() : string&lt;br&gt;" style="text;strokeColor=none;fillColor=none;align=left;verticalAlign=top;spacingLeft=4;spacingRight=4;overflow=hidden;rotatable=0;points=[[0,0.5],[1,0.5]];portConstraint=eastwest;whiteSpace=wrap;html=1;" parent="ZbOTNVOlPopGAY5BEThr-49" vertex="1">
          <mxGeometry y="58" width="170" height="72" as="geometry" />
        </mxCell>
        <mxCell id="ZbOTNVOlPopGAY5BEThr-53" value="Database" style="swimlane;fontStyle=1;align=center;verticalAlign=top;childLayout=stackLayout;horizontal=1;startSize=26;horizontalStack=0;resizeParent=1;resizeParentMax=0;resizeLast=0;collapsible=1;marginBottom=0;whiteSpace=wrap;html=1;" parent="WIyWlLk6GJQsqaUBKTNV-1" vertex="1">
          <mxGeometry x="280" y="1440" width="220" height="210" as="geometry" />
        </mxCell>
        <mxCell id="ZbOTNVOlPopGAY5BEThr-57" value="" style="endArrow=diamondThin;endFill=1;endSize=24;html=1;rounded=0;entryX=0.971;entryY=0.042;entryDx=0;entryDy=0;entryPerimeter=0;" parent="ZbOTNVOlPopGAY5BEThr-53" target="ZbOTNVOlPopGAY5BEThr-50" edge="1">
          <mxGeometry width="160" relative="1" as="geometry">
            <mxPoint y="26" as="sourcePoint" />
            <mxPoint x="160" y="26" as="targetPoint" />
            <Array as="points" />
          </mxGeometry>
        </mxCell>
        <mxCell id="ZbOTNVOlPopGAY5BEThr-54" value="- questions : vector&amp;lt;Question&amp;gt;&lt;br&gt;- answers : vector&amp;lt;Answer&amp;gt;" style="text;strokeColor=none;fillColor=none;align=left;verticalAlign=top;spacingLeft=4;spacingRight=4;overflow=hidden;rotatable=0;points=[[0,0.5],[1,0.5]];portConstraint=eastwest;whiteSpace=wrap;html=1;" parent="ZbOTNVOlPopGAY5BEThr-53" vertex="1">
          <mxGeometry y="26" width="220" height="34" as="geometry" />
        </mxCell>
        <mxCell id="ZbOTNVOlPopGAY5BEThr-55" value="" style="line;strokeWidth=1;fillColor=none;align=left;verticalAlign=middle;spacingTop=-1;spacingLeft=3;spacingRight=3;rotatable=0;labelPosition=right;points=[];portConstraint=eastwest;strokeColor=inherit;" parent="ZbOTNVOlPopGAY5BEThr-53" vertex="1">
          <mxGeometry y="60" width="220" height="8" as="geometry" />
        </mxCell>
        <mxCell id="ZbOTNVOlPopGAY5BEThr-56" value="+ Database()&lt;br&gt;+ setQuestions(vector&amp;lt;Question&amp;gt;)&lt;br&gt;+ getQuestions() : vector&amp;lt;Question&amp;gt;&lt;br&gt;+ addQuestion(Question) : void&lt;br&gt;+ addAnswer() : void&lt;br&gt;+ setAnswers(vector&amp;lt;Answer&amp;gt;) : void&lt;br&gt;+ getAnswers() : vector&amp;lt;Answer&amp;gt;&lt;br&gt;+ loadQuestions(string) : void&lt;br&gt;+ loadAnswers(string) : void" style="text;strokeColor=none;fillColor=none;align=left;verticalAlign=top;spacingLeft=4;spacingRight=4;overflow=hidden;rotatable=0;points=[[0,0.5],[1,0.5]];portConstraint=eastwest;whiteSpace=wrap;html=1;" parent="ZbOTNVOlPopGAY5BEThr-53" vertex="1">
          <mxGeometry y="68" width="220" height="142" as="geometry" />
        </mxCell>
        <mxCell id="ZbOTNVOlPopGAY5BEThr-58" value="Display" style="swimlane;fontStyle=1;align=center;verticalAlign=top;childLayout=stackLayout;horizontal=1;startSize=26;horizontalStack=0;resizeParent=1;resizeParentMax=0;resizeLast=0;collapsible=1;marginBottom=0;whiteSpace=wrap;html=1;" parent="WIyWlLk6GJQsqaUBKTNV-1" vertex="1">
          <mxGeometry x="110" y="1710" width="200" height="210" as="geometry" />
        </mxCell>
        <mxCell id="ZbOTNVOlPopGAY5BEThr-59" value="- db : Database&lt;br&gt;- fsMy : FileSystem&lt;br&gt;- fsUser : FileSystem&lt;br&gt;- ceMy : CommandExecutor&lt;br&gt;- ceUser : CommandExecutor" style="text;strokeColor=none;fillColor=none;align=left;verticalAlign=top;spacingLeft=4;spacingRight=4;overflow=hidden;rotatable=0;points=[[0,0.5],[1,0.5]];portConstraint=eastwest;whiteSpace=wrap;html=1;" parent="ZbOTNVOlPopGAY5BEThr-58" vertex="1">
          <mxGeometry y="26" width="200" height="84" as="geometry" />
        </mxCell>
        <mxCell id="ZbOTNVOlPopGAY5BEThr-60" value="" style="line;strokeWidth=1;fillColor=none;align=left;verticalAlign=middle;spacingTop=-1;spacingLeft=3;spacingRight=3;rotatable=0;labelPosition=right;points=[];portConstraint=eastwest;strokeColor=inherit;" parent="ZbOTNVOlPopGAY5BEThr-58" vertex="1">
          <mxGeometry y="110" width="200" height="8" as="geometry" />
        </mxCell>
        <mxCell id="ZbOTNVOlPopGAY5BEThr-61" value="+ Display()&lt;br&gt;+ run() : void&lt;br&gt;+ runTerminal() : void&lt;br&gt;+ runExam() : void&lt;br&gt;+ runVirtualTerminal() : void" style="text;strokeColor=none;fillColor=none;align=left;verticalAlign=top;spacingLeft=4;spacingRight=4;overflow=hidden;rotatable=0;points=[[0,0.5],[1,0.5]];portConstraint=eastwest;whiteSpace=wrap;html=1;" parent="ZbOTNVOlPopGAY5BEThr-58" vertex="1">
          <mxGeometry y="118" width="200" height="92" as="geometry" />
        </mxCell>
        <mxCell id="ZbOTNVOlPopGAY5BEThr-64" value="" style="endArrow=diamondThin;endFill=1;endSize=24;html=1;rounded=0;entryX=-0.02;entryY=-0.075;entryDx=0;entryDy=0;entryPerimeter=0;" parent="WIyWlLk6GJQsqaUBKTNV-1" target="ZbOTNVOlPopGAY5BEThr-42" edge="1">
          <mxGeometry width="160" relative="1" as="geometry">
            <mxPoint x="100" y="1760" as="sourcePoint" />
            <mxPoint x="130" y="1560" as="targetPoint" />
            <Array as="points">
              <mxPoint x="70" y="1760" />
              <mxPoint y="1760" />
              <mxPoint y="1682" />
              <mxPoint y="1626" />
              <mxPoint y="1320" />
            </Array>
          </mxGeometry>
        </mxCell>
        <mxCell id="ZbOTNVOlPopGAY5BEThr-66" value="" style="endArrow=diamondThin;endFill=1;endSize=24;html=1;rounded=0;exitX=-0.015;exitY=0.75;exitDx=0;exitDy=0;exitPerimeter=0;entryX=-0.011;entryY=0.957;entryDx=0;entryDy=0;entryPerimeter=0;" parent="WIyWlLk6GJQsqaUBKTNV-1" source="ZbOTNVOlPopGAY5BEThr-59" edge="1" target="ZbOTNVOlPopGAY5BEThr-22">
          <mxGeometry width="160" relative="1" as="geometry">
            <mxPoint x="120" y="1680" as="sourcePoint" />
            <mxPoint x="40" y="1040" as="targetPoint" />
            <Array as="points">
              <mxPoint x="-40" y="1800" />
              <mxPoint x="-40" y="1718" />
              <mxPoint x="-40" y="1680" />
              <mxPoint x="-40" y="1040" />
              <mxPoint x="-40" y="1000" />
              <mxPoint y="1000" />
            </Array>
          </mxGeometry>
        </mxCell>
        <mxCell id="ZbOTNVOlPopGAY5BEThr-67" value="" style="endArrow=open;endFill=1;endSize=12;html=1;rounded=0;exitX=1.01;exitY=0.011;exitDx=0;exitDy=0;exitPerimeter=0;entryX=1.014;entryY=0.181;entryDx=0;entryDy=0;entryPerimeter=0;" parent="WIyWlLk6GJQsqaUBKTNV-1" edge="1" target="ZbOTNVOlPopGAY5BEThr-29" source="ZbOTNVOlPopGAY5BEThr-61">
          <mxGeometry width="160" relative="1" as="geometry">
            <mxPoint x="380" y="1830" as="sourcePoint" />
            <mxPoint x="740" y="1150" as="targetPoint" />
            <Array as="points">
              <mxPoint x="760" y="1830" />
              <mxPoint x="760" y="1570" />
              <mxPoint x="760" y="1120" />
              <mxPoint x="760" y="681" />
            </Array>
          </mxGeometry>
        </mxCell>
        <mxCell id="g7nbi25_fmv9_5TzF6J1-0" value="Answer" style="swimlane;fontStyle=1;align=center;verticalAlign=top;childLayout=stackLayout;horizontal=1;startSize=26;horizontalStack=0;resizeParent=1;resizeParentMax=0;resizeLast=0;collapsible=1;marginBottom=0;whiteSpace=wrap;html=1;" parent="WIyWlLk6GJQsqaUBKTNV-1" vertex="1">
          <mxGeometry x="540" y="1440" width="160" height="130" as="geometry" />
        </mxCell>
        <mxCell id="g7nbi25_fmv9_5TzF6J1-4" value="" style="endArrow=diamondThin;endFill=1;endSize=24;html=1;rounded=0;entryX=0;entryY=-0.077;entryDx=0;entryDy=0;entryPerimeter=0;" parent="g7nbi25_fmv9_5TzF6J1-0" target="g7nbi25_fmv9_5TzF6J1-1" edge="1">
          <mxGeometry width="160" relative="1" as="geometry">
            <mxPoint x="-40" y="26" as="sourcePoint" />
            <mxPoint x="120" y="26" as="targetPoint" />
          </mxGeometry>
        </mxCell>
        <mxCell id="g7nbi25_fmv9_5TzF6J1-1" value="- answer : string" style="text;strokeColor=none;fillColor=none;align=left;verticalAlign=top;spacingLeft=4;spacingRight=4;overflow=hidden;rotatable=0;points=[[0,0.5],[1,0.5]];portConstraint=eastwest;whiteSpace=wrap;html=1;" parent="g7nbi25_fmv9_5TzF6J1-0" vertex="1">
          <mxGeometry y="26" width="160" height="26" as="geometry" />
        </mxCell>
        <mxCell id="g7nbi25_fmv9_5TzF6J1-2" value="" style="line;strokeWidth=1;fillColor=none;align=left;verticalAlign=middle;spacingTop=-1;spacingLeft=3;spacingRight=3;rotatable=0;labelPosition=right;points=[];portConstraint=eastwest;strokeColor=inherit;" parent="g7nbi25_fmv9_5TzF6J1-0" vertex="1">
          <mxGeometry y="52" width="160" height="8" as="geometry" />
        </mxCell>
        <mxCell id="g7nbi25_fmv9_5TzF6J1-3" value="+ Answer()&lt;br&gt;+ Answer(string)&lt;br&gt;+ setAnswer(string) : void&lt;br&gt;+ getAnswer() : string" style="text;strokeColor=none;fillColor=none;align=left;verticalAlign=top;spacingLeft=4;spacingRight=4;overflow=hidden;rotatable=0;points=[[0,0.5],[1,0.5]];portConstraint=eastwest;whiteSpace=wrap;html=1;" parent="g7nbi25_fmv9_5TzF6J1-0" vertex="1">
          <mxGeometry y="60" width="160" height="70" as="geometry" />
        </mxCell>
        <mxCell id="DWfKfB0hs1ZdpWbbxo_0-4" value="enum class Permission" style="swimlane;fontStyle=0;childLayout=stackLayout;horizontal=1;startSize=26;fillColor=none;horizontalStack=0;resizeParent=1;resizeParentMax=0;resizeLast=0;collapsible=1;marginBottom=0;whiteSpace=wrap;html=1;" vertex="1" parent="WIyWlLk6GJQsqaUBKTNV-1">
          <mxGeometry x="-150" y="40" width="150" height="180" as="geometry" />
        </mxCell>
        <mxCell id="DWfKfB0hs1ZdpWbbxo_0-5" value="None &lt;br&gt;OthersExecute&amp;nbsp;&lt;br&gt;OthersWrite&lt;br&gt;OthersRead GroupExecute&lt;br&gt;GroupWrite&lt;br&gt;GroupRead&lt;br&gt;OwnerExecute&lt;br&gt;OwnerWrite&lt;br&gt;OwnerRead" style="text;strokeColor=none;fillColor=none;align=left;verticalAlign=top;spacingLeft=4;spacingRight=4;overflow=hidden;rotatable=0;points=[[0,0.5],[1,0.5]];portConstraint=eastwest;whiteSpace=wrap;html=1;" vertex="1" parent="DWfKfB0hs1ZdpWbbxo_0-4">
          <mxGeometry y="26" width="150" height="154" as="geometry" />
        </mxCell>
        <mxCell id="DWfKfB0hs1ZdpWbbxo_0-8" value="" style="endArrow=diamondThin;endFill=1;endSize=24;html=1;rounded=0;exitX=-0.007;exitY=-0.013;exitDx=0;exitDy=0;exitPerimeter=0;entryX=1;entryY=0.5;entryDx=0;entryDy=0;" edge="1" parent="WIyWlLk6GJQsqaUBKTNV-1" source="ZbOTNVOlPopGAY5BEThr-15" target="DWfKfB0hs1ZdpWbbxo_0-5">
          <mxGeometry width="160" relative="1" as="geometry">
            <mxPoint x="-130" y="250" as="sourcePoint" />
            <mxPoint x="30" y="250" as="targetPoint" />
            <Array as="points">
              <mxPoint x="20" y="143" />
            </Array>
          </mxGeometry>
        </mxCell>
        <mxCell id="DWfKfB0hs1ZdpWbbxo_0-14" value="AnotherCommands" style="swimlane;fontStyle=1;align=center;verticalAlign=top;childLayout=stackLayout;horizontal=1;startSize=26;horizontalStack=0;resizeParent=1;resizeParentMax=0;resizeLast=0;collapsible=1;marginBottom=0;whiteSpace=wrap;html=1;" vertex="1" parent="WIyWlLk6GJQsqaUBKTNV-1">
          <mxGeometry y="1040" width="150" height="180" as="geometry" />
        </mxCell>
        <mxCell id="DWfKfB0hs1ZdpWbbxo_0-16" value="" style="line;strokeWidth=1;fillColor=none;align=left;verticalAlign=middle;spacingTop=-1;spacingLeft=3;spacingRight=3;rotatable=0;labelPosition=right;points=[];portConstraint=eastwest;strokeColor=inherit;" vertex="1" parent="DWfKfB0hs1ZdpWbbxo_0-14">
          <mxGeometry y="26" width="150" height="8" as="geometry" />
        </mxCell>
        <mxCell id="DWfKfB0hs1ZdpWbbxo_0-17" value="+ date() : void&lt;br style=&quot;border-color: var(--border-color);&quot;&gt;+ cal() : void&lt;br style=&quot;border-color: var(--border-color);&quot;&gt;+ df() : void&lt;br style=&quot;border-color: var(--border-color);&quot;&gt;+ free() : void&lt;br&gt;+ echo(string) : void&lt;br&gt;+ ps() : void&lt;br style=&quot;border-color: var(--border-color);&quot;&gt;+ top() : void&lt;br style=&quot;border-color: var(--border-color);&quot;&gt;+ jobs() : void&lt;br&gt;+ whatis(string) : void" style="text;strokeColor=none;fillColor=none;align=left;verticalAlign=top;spacingLeft=4;spacingRight=4;overflow=hidden;rotatable=0;points=[[0,0.5],[1,0.5]];portConstraint=eastwest;whiteSpace=wrap;html=1;" vertex="1" parent="DWfKfB0hs1ZdpWbbxo_0-14">
          <mxGeometry y="34" width="150" height="146" as="geometry" />
        </mxCell>
        <mxCell id="DWfKfB0hs1ZdpWbbxo_0-18" value="" style="endArrow=diamondThin;endFill=1;endSize=24;html=1;rounded=0;" edge="1" parent="WIyWlLk6GJQsqaUBKTNV-1">
          <mxGeometry width="160" relative="1" as="geometry">
            <mxPoint x="360" y="1000" as="sourcePoint" />
            <mxPoint x="400" y="1000" as="targetPoint" />
          </mxGeometry>
        </mxCell>
        <mxCell id="DWfKfB0hs1ZdpWbbxo_0-19" value="" style="endArrow=diamondThin;endFill=1;endSize=24;html=1;rounded=0;entryX=0.545;entryY=0.993;entryDx=0;entryDy=0;entryPerimeter=0;exitX=1.015;exitY=0.286;exitDx=0;exitDy=0;exitPerimeter=0;" edge="1" parent="WIyWlLk6GJQsqaUBKTNV-1" source="ZbOTNVOlPopGAY5BEThr-59" target="ZbOTNVOlPopGAY5BEThr-56">
          <mxGeometry width="160" relative="1" as="geometry">
            <mxPoint x="320" y="1730" as="sourcePoint" />
            <mxPoint x="410" y="1650" as="targetPoint" />
            <Array as="points">
              <mxPoint x="400" y="1760" />
            </Array>
          </mxGeometry>
        </mxCell>
        <mxCell id="DWfKfB0hs1ZdpWbbxo_0-20" value="" style="endArrow=open;endFill=1;endSize=12;html=1;rounded=0;entryX=1.011;entryY=0.012;entryDx=0;entryDy=0;entryPerimeter=0;" edge="1" parent="WIyWlLk6GJQsqaUBKTNV-1" target="ZbOTNVOlPopGAY5BEThr-34">
          <mxGeometry width="160" relative="1" as="geometry">
            <mxPoint x="760" y="980" as="sourcePoint" />
            <mxPoint x="860" y="990" as="targetPoint" />
          </mxGeometry>
        </mxCell>
        <mxCell id="DWfKfB0hs1ZdpWbbxo_0-21" value="" style="endArrow=diamondThin;endFill=1;endSize=24;html=1;rounded=0;exitX=0;exitY=0.074;exitDx=0;exitDy=0;exitPerimeter=0;entryX=0.1;entryY=1.034;entryDx=0;entryDy=0;entryPerimeter=0;" edge="1" parent="WIyWlLk6GJQsqaUBKTNV-1" source="ZbOTNVOlPopGAY5BEThr-40" target="DWfKfB0hs1ZdpWbbxo_0-17">
          <mxGeometry width="160" relative="1" as="geometry">
            <mxPoint x="10" y="1230" as="sourcePoint" />
            <mxPoint x="170" y="1230" as="targetPoint" />
            <Array as="points">
              <mxPoint x="15" y="1270" />
            </Array>
          </mxGeometry>
        </mxCell>
      </root>
    </mxGraphModel>
  </diagram>
</mxfile>
